<mxfile host="app.diagrams.net" modified="2024-06-23T05:21:44.762Z" agent="Mozilla/5.0 (Windows NT 10.0; Win64; x64) AppleWebKit/537.36 (KHTML, like Gecko) Chrome/125.0.0.0 Safari/537.36 Edg/125.0.0.0" version="24.5.2" etag="Kz7q7Dhxv4tYGScZzEcG" type="github">
  <diagram name="Page-1" id="aunKlQE-kA8FGZzI0lfl">
    <mxGraphModel>
      <root>
        <mxCell id="0" />
        <mxCell id="1" parent="0" />
      </root>
    </mxGraphModel>
  </diagram>
</mxfile>
